<svg width="300" height="300" viewBox="0 0 300 300" fill="none" xmlns="http://www.w3.org/2000/svg">
<path d="M300 0H0V300H300V0Z" fill="white"/>
<g filter="url(#filter0_i_15_8)">
<path d="M154.204 56.8272C155.61 55.7978 157.522 55.7978 158.928 56.8272L227.249 106.827C228.156 107.491 228.742 108.505 228.863 109.623L238.004 193.79C238.192 195.523 237.236 197.178 235.641 197.882L158.18 232.049C157.152 232.503 155.98 232.503 154.952 232.049L77.4905 197.882C75.8957 197.178 74.94 195.523 75.1282 193.79L84.2686 109.623C84.39 108.505 84.9759 107.491 85.8829 106.827L154.204 56.8272Z" fill="url(#paint0_linear_15_8)"/>
</g>
<path d="M112.838 168.561V125.109H121.806V160.982H139.996V168.561H112.838ZM135.264 168.561V162.876C135.264 160.434 135.327 158.371 135.454 156.687C135.58 154.961 135.875 153.508 136.338 152.329C136.843 151.15 137.58 150.14 138.548 149.298C139.559 148.456 140.948 147.677 142.717 146.961L152.696 142.919C154.043 142.329 155.053 141.824 155.727 141.403C156.401 140.94 156.843 140.372 157.053 139.698C157.264 139.024 157.369 138.119 157.369 136.982C157.369 135.466 157.096 134.351 156.548 133.635C156.043 132.877 155.138 132.414 153.832 132.245C152.569 132.035 150.759 131.93 148.401 131.93C147.475 131.93 146.317 131.972 144.927 132.056C143.538 132.14 142.085 132.245 140.569 132.372C139.054 132.498 137.58 132.645 136.149 132.814V125.93C137.454 125.677 138.97 125.467 140.696 125.298C142.422 125.088 144.19 124.919 146.001 124.793C147.854 124.667 149.559 124.603 151.117 124.603C153.222 124.603 155.18 124.73 156.99 124.982C158.843 125.235 160.464 125.761 161.853 126.561C163.243 127.361 164.338 128.54 165.138 130.098C165.937 131.656 166.337 133.761 166.337 136.414C166.337 139.024 166.043 141.129 165.453 142.729C164.906 144.329 164.064 145.614 162.927 146.582C161.79 147.55 160.38 148.371 158.696 149.045L147.327 153.592C146.317 153.971 145.559 154.392 145.054 154.856C144.59 155.277 144.275 155.845 144.106 156.561C143.98 157.234 143.917 158.161 143.917 159.34V161.171H166.337V168.561H135.264ZM165.221 168.561V125.109H174.505L191.621 151.887H191.937V125.109H200.526V168.561H192L174.127 140.329H173.811V168.561H165.221Z" fill="#F5FCFE"/>
<g filter="url(#filter1_i_15_8)">
<path d="M215.39 170.155C216.628 169.44 218.152 169.44 219.39 170.155L239.977 182.04C241.214 182.755 241.977 184.075 241.977 185.504V209.276C241.977 210.705 241.214 212.025 239.977 212.74L219.39 224.626C218.152 225.34 216.628 225.34 215.39 224.626L194.804 212.74C193.566 212.025 192.804 210.705 192.804 209.276V185.504C192.804 184.075 193.566 182.755 194.804 182.04L215.39 170.155Z" fill="#BC193F"/>
</g>
<path d="M209.597 204.297V202.447H211.246V204.297H209.597ZM212.876 189.456V187.74H214.391V189.456H212.876ZM210.759 208.754V207.662C211.427 207.662 211.917 207.625 212.229 207.55C212.541 207.476 212.735 207.342 212.809 207.149C212.898 206.971 212.943 206.726 212.943 206.414V192.932H214.302V206.08C214.302 206.704 214.235 207.194 214.101 207.55C213.982 207.922 213.782 208.189 213.5 208.353C213.217 208.516 212.846 208.62 212.385 208.665C211.94 208.724 211.397 208.754 210.759 208.754ZM220.276 204.475C219.875 204.475 219.429 204.46 218.939 204.431C218.464 204.416 217.988 204.386 217.513 204.341C217.052 204.297 216.644 204.252 216.287 204.208V203.049C216.703 203.094 217.082 203.131 217.424 203.16C217.765 203.19 218.092 203.22 218.404 203.25C218.716 203.264 219.028 203.279 219.34 203.294C219.652 203.294 219.994 203.294 220.365 203.294C221.168 203.294 221.754 203.227 222.126 203.094C222.512 202.96 222.765 202.744 222.883 202.447C223.017 202.135 223.084 201.734 223.084 201.244C223.084 200.665 223.032 200.249 222.928 199.996C222.839 199.729 222.683 199.558 222.46 199.483C222.237 199.409 221.918 199.35 221.502 199.305L218.404 198.971C217.736 198.897 217.216 198.756 216.844 198.548C216.488 198.34 216.243 198.035 216.109 197.634C215.99 197.218 215.931 196.683 215.931 196.029C215.931 195.287 216.027 194.7 216.22 194.269C216.414 193.823 216.696 193.496 217.067 193.288C217.453 193.066 217.914 192.924 218.449 192.865C218.999 192.791 219.615 192.754 220.298 192.754C220.67 192.754 221.064 192.768 221.479 192.798C221.895 192.813 222.304 192.843 222.705 192.887C223.106 192.932 223.463 192.984 223.775 193.043V194.202C223.359 194.128 222.958 194.076 222.571 194.046C222.185 194.002 221.791 193.972 221.39 193.957C220.989 193.942 220.566 193.935 220.12 193.935C219.526 193.935 219.013 193.972 218.583 194.046C218.152 194.106 217.817 194.276 217.58 194.559C217.357 194.826 217.245 195.287 217.245 195.94C217.245 196.431 217.283 196.802 217.357 197.054C217.446 197.307 217.602 197.478 217.825 197.567C218.063 197.656 218.389 197.723 218.805 197.768L221.925 198.08C222.564 198.139 223.054 198.258 223.396 198.436C223.752 198.6 224.005 198.897 224.154 199.327C224.317 199.743 224.399 200.375 224.399 201.222C224.399 201.905 224.317 202.462 224.154 202.893C223.99 203.309 223.738 203.636 223.396 203.873C223.054 204.096 222.623 204.252 222.103 204.341C221.583 204.431 220.974 204.475 220.276 204.475Z" fill="#F5FCFE"/>
<defs>
<filter id="filter0_i_15_8" x="75.1047" y="56.0552" width="162.923" height="180.334" filterUnits="userSpaceOnUse" color-interpolation-filters="sRGB">
<feFlood flood-opacity="0" result="BackgroundImageFix"/>
<feBlend mode="normal" in="SourceGraphic" in2="BackgroundImageFix" result="shape"/>
<feColorMatrix in="SourceAlpha" type="matrix" values="0 0 0 0 0 0 0 0 0 0 0 0 0 0 0 0 0 0 127 0" result="hardAlpha"/>
<feOffset dy="4"/>
<feGaussianBlur stdDeviation="2"/>
<feComposite in2="hardAlpha" operator="arithmetic" k2="-1" k3="1"/>
<feColorMatrix type="matrix" values="0 0 0 0 0 0 0 0 0 0 0 0 0 0 0 0 0 0 0.15 0"/>
<feBlend mode="normal" in2="shape" result="effect1_innerShadow_15_8"/>
</filter>
<filter id="filter1_i_15_8" x="192.804" y="169.619" width="49.173" height="58.543" filterUnits="userSpaceOnUse" color-interpolation-filters="sRGB">
<feFlood flood-opacity="0" result="BackgroundImageFix"/>
<feBlend mode="normal" in="SourceGraphic" in2="BackgroundImageFix" result="shape"/>
<feColorMatrix in="SourceAlpha" type="matrix" values="0 0 0 0 0 0 0 0 0 0 0 0 0 0 0 0 0 0 127 0" result="hardAlpha"/>
<feOffset dy="3"/>
<feGaussianBlur stdDeviation="4"/>
<feComposite in2="hardAlpha" operator="arithmetic" k2="-1" k3="1"/>
<feColorMatrix type="matrix" values="0 0 0 0 0 0 0 0 0 0 0 0 0 0 0 0 0 0 0.1 0"/>
<feBlend mode="normal" in2="shape" result="effect1_innerShadow_15_8"/>
</filter>
<linearGradient id="paint0_linear_15_8" x1="156.566" y1="55.0984" x2="156.566" y2="243.901" gradientUnits="userSpaceOnUse">
<stop stop-color="#FA0F00"/>
<stop offset="1" stop-color="#1031EB"/>
</linearGradient>
</defs>
</svg>
